inDegrees=no
num_controls=7
num_derivatives=13
num_iterations=131
num_multipliers=7
num_parameters=0
num_slacks=7
num_states=26
objective=5.436867
objective_accelerations=0.527745
objective_balance=0.009200
objective_effort=0.422000
objective_height=4.431103
objective_ligament=0.046818
solver_duration=1094.362475
status=Solve_Succeeded
success=true
DataType=double
version=3
OpenSimVersion=4.4-2022-07-23-0e9fedc
endheader
time	/jointset/ground_pelvis/pelvis_tilt/value	/jointset/ground_pelvis/pelvis_tx/value	/jointset/ground_pelvis/pelvis_ty/value	/jointset/hip_r/hip_flexion_r/value	/jointset/hip_r/hip_adduction_r/value	/jointset/hip_r/hip_rotation_r/value	/jointset/back/lumbar_extension/value	/jointset/patellofemoral_r/patellar_flexion_r/value	/jointset/knee_r/knee_flexion_r/value	/jointset/knee_r/knee_adduction_r/value	/jointset/knee_r/knee_rotation_r/value	/jointset/ankle_r/ankle_angle_r/value	/jointset/subtalar_r/subtalar_angle_r/value	/jointset/ground_pelvis/pelvis_tilt/speed	/jointset/ground_pelvis/pelvis_tx/speed	/jointset/ground_pelvis/pelvis_ty/speed	/jointset/hip_r/hip_flexion_r/speed	/jointset/hip_r/hip_adduction_r/speed	/jointset/hip_r/hip_rotation_r/speed	/jointset/back/lumbar_extension/speed	/jointset/patellofemoral_r/patellar_flexion_r/speed	/jointset/knee_r/knee_flexion_r/speed	/jointset/knee_r/knee_adduction_r/speed	/jointset/knee_r/knee_rotation_r/speed	/jointset/ankle_r/ankle_angle_r/speed	/jointset/subtalar_r/subtalar_angle_r/speed	/forceset/tau_hip_flexion_r	/forceset/tau_hip_adduction_r	/forceset/tau_hip_rotation_r	/forceset/tau_knee_flexion_r	/forceset/tau_ankle_angle_r	/forceset/tau_subtalar_angle_r	/forceset/tau_lumbar_extension	lambda_cid13_p0	lambda_cid14_p0	lambda_cid14_p1	lambda_cid14_p2	lambda_cid14_p3	lambda_cid14_p4	lambda_cid14_p5	/jointset/ground_pelvis/pelvis_tilt/accel	/jointset/ground_pelvis/pelvis_tx/accel	/jointset/ground_pelvis/pelvis_ty/accel	/jointset/hip_r/hip_flexion_r/accel	/jointset/hip_r/hip_adduction_r/accel	/jointset/hip_r/hip_rotation_r/accel	/jointset/back/lumbar_extension/accel	/jointset/patellofemoral_r/patellar_flexion_r/accel	/jointset/knee_r/knee_flexion_r/accel	/jointset/knee_r/knee_adduction_r/accel	/jointset/knee_r/knee_rotation_r/accel	/jointset/ankle_r/ankle_angle_r/accel	/jointset/subtalar_r/subtalar_angle_r/accel	gamma_cid13_p0	gamma_cid14_p0	gamma_cid14_p1	gamma_cid14_p2	gamma_cid14_p3	gamma_cid14_p4	gamma_cid14_p5
1.5	-0.0542110160528396	0.04076746733112496	0.8307202699823115	0.7407473761104343	-0.2202638054068506	-0.1414344500524368	-0.6195294319604472	0.8935177559149967	0.8935177559150193	-0.04904368161405512	0.1745179158627327	0.2987829181281647	0.1447317651304064	0.3906152198115043	0.2087176833100184	0.4527891249650082	-1.823240025432856	0.01704611198317623	-0.1704470084728357	0.8019390989298881	-1.846511135702198	-1.846511135702152	0.4442712055935029	-5.24319048140272e-05	-0.5209768026109218	-0.1846124652695788	-0.1407203311307652	0.0003085198020124771	0.01866590953260607	-0.3047675587142264	0.01394828059628259	-0.001307956467485066	0.2010674768909279	-11.74232105075241	-37.76120689530023	-5.996580859309856	0.02647820389925039	-2.449102521159845	-632.5609719591445	65.67537985827292	0.07670288919366536	0.5043612523675558	-0.4708523027438605	-0.8907297385111013	-0.204808611865471	-0.6209496680597341	1.670551606550468	-1.210593229430758	-1.210593229430758	0.3792630322045973	-0.009053954895413486	-0.5416011227464806	-0.3423899876167153	1.085231724756594e-07	1.015074054648265e-07	-5.248581653928949e-07	1.173519747647338e-06	-2.879297292987387e-10	2.077061771556076e-07	-4.957232620458315e-07
1.51	-0.05030141732611458	0.04287959638635262	0.8352237010236355	0.7224725099260061	-0.2201042560700897	-0.1431695867632657	-0.6114278577454331	0.8749945414141529	0.8749945414142768	-0.0445808094822485	0.1745176351750731	0.2935465901125703	0.1428678280876616	0.391245918527501	0.2136787583518558	0.4478027763831984	-1.831486214257459	0.01485899791621373	-0.1765827750785353	0.8182610168863321	-1.857876402458036	-1.857876402458001	0.4482662581477322	-8.981611640557254e-06	-0.5262118691606988	-0.1881372273615295	-0.1342232987942666	-0.0009278036827345771	0.01847858464338017	-0.3009191745668714	0.01550789928071786	-0.002122291594706417	0.1949446372900751	-12.70161432118903	-37.03330243738613	-6.09154708731644	-0.1082990360015764	-2.474572690361087	-628.2926634317964	65.2653006446004	0.04747028093733062	0.4875801569043723	-0.5266309552690984	-0.7545029056540542	-0.2262765438202193	-0.610074251231035	1.595802811748065	-1.061210312547385	-1.06121031254908	0.4040032988467633	0.01042449600617036	-0.5028942649069059	-0.3518511653118283	1.06902140228224e-07	8.931835117531505e-08	-6.270533796026714e-07	1.05264443051149e-06	1.618339974922586e-08	2.066397637933966e-07	-5.6500225602777e-07
1.52	-0.04638726822860659	0.04504045609736079	0.8396744476152671	0.7041225939631255	-0.2199667006219059	-0.1449661179590721	-0.6031665061665364	0.8563653308630808	0.8563653308631041	-0.04007911143847034	0.1745176649850805	0.2882602244627168	0.140969777054934	0.3915252939689225	0.2184638144661166	0.4422522350265809	-1.838249981130814	0.01264733426091698	-0.1827259054604426	0.8338945717050655	-1.867710345769352	-1.867710345769328	0.452036387974553	9.66766485221312e-06	-0.5309843294630182	-0.1914352632665968	-0.1277262664575051	-0.002164127167563396	0.0182912597532126	-0.2970707904195495	0.01706751796512825	-0.002936626722046177	0.1888217976894663	-13.65863543203517	-36.30695805032271	-6.184732368386372	-0.245706793923222	-2.512542464808924	-624.0509241767654	64.90776496415873	0.006438234278095907	0.4691574668524726	-0.5836908577053889	-0.5942453482616642	-0.2097185295323674	-0.6224224233015506	1.532878979008022	-0.9043285405263707	-0.9043285405263698	0.3342784867230005	-0.01401415823107115	-0.4490798732547227	-0.2970447502401952	1.08629252386572e-07	7.773834952967356e-08	-7.65745336927121e-07	9.289664846146219e-07	3.618506969773509e-08	2.054978515357159e-07	-6.474473465842845e-07
1.53	-0.04247207680761676	0.04724826465696689	0.8440669314840294	0.6857124379783949	-0.2198513430158134	-0.1468246685313295	-0.5947524091123851	0.8376454617519568	0.8376454617520842	-0.03554127387610322	0.174518117224027	0.2829285454858831	0.1390399809995384	0.391452255888083	0.2230657996733048	0.4361560420065836	-1.843528952861587	0.01042040601519355	-0.1889782165925227	0.8487971933802108	-1.875995043371329	-1.875995043371324	0.4554989391338949	7.609534811035994e-05	-0.5352649239657714	-0.1944839373076099	-0.1210791834629019	-0.003491374686770685	0.01814458819538676	-0.2936224172537858	0.01908000407894624	-0.003920329116415899	0.1826035668785073	-14.60982993537739	-35.46233124197234	-6.351296499567397	-0.3479620277076447	-2.631225353623635	-620.0125962657277	64.48179403360024	-0.02327989876659327	0.4509189117478934	-0.6358173077059237	-0.4568763786137655	-0.2297143090007202	-0.6255615327288067	1.449806899557919	-0.7502987578588466	-0.7502987578614703	0.347285354805027	0.01638339540110549	-0.4045307098371663	-0.3028532455808909	1.139137679760647e-07	6.680546631814393e-08	-9.432150838109103e-07	8.023107456591694e-07	5.993772639560294e-08	2.042757217015987e-07	-7.438814147512863e-07
